#define 01n-3_width 32
#define 01n-3_height 32
static char 01n-3_bits[] = {
  0x00, 0x00, 0x00, 0x00, 0x00, 0x08, 0x00, 0x00, 0x00, 0x3E, 0x00, 0x00, 
  0x00, 0x3C, 0x00, 0x00, 0x00, 0x1C, 0x00, 0x00, 0x00, 0x7E, 0x00, 0x00, 
  0x00, 0x08, 0x00, 0x00, 0x00, 0x08, 0x00, 0x00, 0x00, 0x00, 0x00, 0x00, 
  0x08, 0x00, 0x00, 0x01, 0x1E, 0x00, 0x00, 0x06, 0x1E, 0x00, 0x00, 0x0C, 
  0x0E, 0x00, 0x00, 0x18, 0x04, 0x00, 0x00, 0x38, 0x00, 0x00, 0x00, 0x30, 
  0x00, 0x00, 0x00, 0x70, 0x00, 0x00, 0x00, 0x70, 0x00, 0x00, 0x00, 0xE0, 
  0x00, 0x00, 0x00, 0xF0, 0x00, 0x00, 0x00, 0xF0, 0x00, 0x00, 0x00, 0xF0, 
  0x00, 0x00, 0x00, 0xF0, 0x00, 0x00, 0x00, 0xF8, 0x00, 0x00, 0x00, 0xF8, 
  0x00, 0x02, 0x00, 0x7C, 0x00, 0x04, 0x00, 0x7E, 0x00, 0x0C, 0x00, 0x3F, 
  0x00, 0x38, 0xC0, 0x3F, 0x00, 0xF0, 0xFB, 0x1F, 0x00, 0xE0, 0xFF, 0x0F, 
  0x00, 0xC0, 0xFF, 0x03, 0x00, 0x00, 0xFE, 0x00, };
