#define 10d-3_width 32
#define 10d-3_height 32
static char 10d-3_bits[] = {
  0x00, 0x00, 0x0C, 0x00, 0x00, 0x00, 0x1C, 0x00, 0x00, 0x00, 0x0C, 0x00, 
  0x00, 0x00, 0x0C, 0x00, 0x00, 0x1C, 0x08, 0x0C, 0x00, 0x1C, 0x00, 0x0E, 
  0x00, 0x38, 0x1E, 0x07, 0x00, 0xB0, 0x7F, 0x02, 0x00, 0xC4, 0xFF, 0x00, 
  0x00, 0xFF, 0xE1, 0x01, 0xC0, 0xFF, 0x80, 0x01, 0xE0, 0xC1, 0x83, 0x03, 
  0x70, 0x80, 0x8F, 0xFB, 0x70, 0x00, 0xBF, 0xF3, 0x30, 0x00, 0xF8, 0x03, 
  0x38, 0x00, 0xF0, 0x01, 0x38, 0x00, 0xE0, 0x01, 0x1E, 0x00, 0xE0, 0x00, 
  0x0E, 0x00, 0xE0, 0x01, 0x07, 0x00, 0xC0, 0x03, 0x07, 0x00, 0x80, 0x03, 
  0x03, 0x00, 0x00, 0x07, 0x07, 0x06, 0x06, 0x07, 0x07, 0x27, 0x07, 0x03, 
  0x1E, 0x66, 0x87, 0x03, 0x7C, 0x76, 0xF2, 0x01, 0x78, 0x60, 0xF0, 0x01, 
  0x00, 0x07, 0x07, 0x00, 0x00, 0x26, 0x07, 0x00, 0x00, 0x77, 0x06, 0x00, 
  0x00, 0x70, 0x00, 0x00, 0x00, 0x60, 0x00, 0x00, };
