#define 11d-3_width 32
#define 11d-3_height 32
static char 11d-3_bits[] = {
  0x00, 0x7C, 0x00, 0x00, 0x00, 0xFF, 0x01, 0x00, 0x80, 0xFF, 0x63, 0x00, 
  0xC0, 0x01, 0xFF, 0x01, 0xE0, 0x00, 0xFF, 0x03, 0xE0, 0x00, 0x86, 0x07, 
  0x60, 0x00, 0x00, 0x07, 0x78, 0x00, 0x00, 0x1E, 0x7C, 0x00, 0x00, 0x3E, 
  0x1E, 0x00, 0x00, 0x70, 0x07, 0x00, 0x00, 0xE0, 0x07, 0x00, 0x00, 0xE0, 
  0x03, 0x00, 0x00, 0xE0, 0x07, 0x00, 0x00, 0x60, 0x07, 0x00, 0x00, 0x70, 
  0x0E, 0x00, 0x00, 0x70, 0x1E, 0x00, 0xF0, 0x30, 0xFC, 0x00, 0xF0, 0x00, 
  0xF8, 0x00, 0x70, 0x60, 0xC0, 0x01, 0x38, 0x70, 0xC0, 0xC3, 0x38, 0x78, 
  0x80, 0xFF, 0xFC, 0x38, 0x00, 0x7F, 0xFC, 0x3C, 0x00, 0x28, 0x76, 0x5C, 
  0x00, 0x00, 0x30, 0x7E, 0x00, 0x00, 0x10, 0x7E, 0x00, 0x00, 0x18, 0x38, 
  0x00, 0x00, 0x08, 0x18, 0x00, 0x00, 0x00, 0x18, 0x00, 0x00, 0x00, 0x08, 
  0x00, 0x00, 0x00, 0x04, 0x00, 0x00, 0x00, 0x00, };
